<svg class="sch" viewBox="0 0 780 330" role="img" aria-label="Feed and match schematic"><circle cx="40.0" cy="120.0" r="3.5"/><circle cx="40.0" cy="160.0" r="3.5"/><line x1="43.5" y1="120.0" x2="124.0" y2="120.0"/><line x1="43.5" y1="160.0" x2="104.4" y2="160.0"/><circle class="dot" cx="104.4" cy="160.0" r="3.0"/><path d="M124.0,120.0 A20.0,20.0 0 0 0 124.0,160.0"/><path d="M124.0,112.0 A28.0,28.0 0 0 0 124.0,168.0"/><path d="M124.0,128.0 A12.0,12.0 0 0 0 124.0,152.0"/><circle cx="124.0" cy="120.0" r="8.0"/><circle cx="124.0" cy="160.0" r="8.0"/><circle class="dot" cx="124.0" cy="120.0" r="3.0"/><circle class="dot" cx="124.0" cy="160.0" r="3.0"/><text x="20" y="202" text-anchor="start">BL1  RG-58 4:1 balun</text><text x="20" y="215" text-anchor="start">1/2 wave  678 mm</text><text x="20" y="238" text-anchor="start">to rig (50 &#8486;)</text><line x1="124.0" y1="120.0" x2="470.0" y2="120.0"/><line x1="124.0" y1="160.0" x2="470.0" y2="160.0"/><line x1="180.0" y1="112.0" x2="320.0" y2="112.0"/><line x1="180.0" y1="128.0" x2="320.0" y2="128.0"/><circle cx="180.0" cy="120.0" r="8.0"/><circle cx="320.0" cy="120.0" r="8.0"/><line x1="180.0" y1="152.0" x2="320.0" y2="152.0"/><line x1="180.0" y1="168.0" x2="320.0" y2="168.0"/><circle cx="180.0" cy="160.0" r="8.0"/><circle cx="320.0" cy="160.0" r="8.0"/><line x1="180.0" y1="128.0" x2="180.0" y2="152.0"/><line x1="320.0" y1="128.0" x2="320.0" y2="152.0"/><text x="250" y="87" text-anchor="middle">Q1  2x RG-58 (balanced) (100 &#8486;)</text><text x="250" y="100" text-anchor="middle">1/4 wave  339 mm</text><circle class="dot" cx="382.0" cy="120.0" r="3.0"/><circle class="dot" cx="398.0" cy="160.0" r="3.0"/><path d="M382.0,120.0 V153.0 A7.0,7.0 0 0 1 382.0,167.0 V230.0"/><line x1="398.0" y1="160.0" x2="398.0" y2="270.0"/><line x1="470.0" y1="120.0" x2="491.9" y2="122.3"/><line x1="470.0" y1="160.0" x2="491.9" y2="157.7"/><path d="M491.9,122.3 A42.0,42.0 0 1 1 491.9,157.7"/><text x="530" y="144" text-anchor="middle">LOOP A</text><line x1="382.0" y1="230.0" x2="610.0" y2="230.0"/><line x1="398.0" y1="270.0" x2="610.0" y2="270.0"/><line x1="440.0" y1="222.0" x2="600.0" y2="222.0"/><line x1="440.0" y1="238.0" x2="600.0" y2="238.0"/><circle cx="440.0" cy="230.0" r="8.0"/><circle cx="600.0" cy="230.0" r="8.0"/><line x1="440.0" y1="262.0" x2="600.0" y2="262.0"/><line x1="440.0" y1="278.0" x2="600.0" y2="278.0"/><circle cx="440.0" cy="270.0" r="8.0"/><circle cx="600.0" cy="270.0" r="8.0"/><line x1="440.0" y1="238.0" x2="440.0" y2="262.0"/><line x1="600.0" y1="238.0" x2="600.0" y2="262.0"/><text x="520" y="197" text-anchor="middle">PL1  2x RG-58 (balanced) (100 &#8486;)</text><text x="520" y="210" text-anchor="middle">1/4 wave  339 mm</text><line x1="610.0" y1="230.0" x2="634.0" y2="230.0"/><line x1="610.0" y1="270.0" x2="634.0" y2="270.0"/><line x1="634.0" y1="230.0" x2="657.9" y2="232.3"/><line x1="634.0" y1="270.0" x2="657.9" y2="267.7"/><path d="M657.9,232.3 A42.0,42.0 0 1 1 657.9,267.7"/><text x="696" y="254" text-anchor="middle">LOOP B</text></svg>