<svg class="sch" viewBox="0 0 810 320" role="img" aria-label="Feed and match schematic"><text x="24" y="190" text-anchor="start">to rig (50 &#8486;, 1:1 choke)</text><circle cx="48.0" cy="120.0" r="3.5"/><circle cx="48.0" cy="160.0" r="3.5"/><line x1="51.5" y1="120.0" x2="268.0" y2="120.0"/><line x1="268.0" y1="120.0" x2="320.0" y2="120.0"/><line x1="320.0" y1="120.0" x2="560.0" y2="120.0"/><line x1="51.5" y1="160.0" x2="96.0" y2="160.0"/><line x1="244.0" y1="160.0" x2="560.0" y2="160.0"/><line x1="96.0" y1="112.0" x2="244.0" y2="112.0"/><line x1="96.0" y1="128.0" x2="244.0" y2="128.0"/><circle cx="96.0" cy="120.0" r="8.0"/><circle cx="244.0" cy="120.0" r="8.0"/><line x1="96.0" y1="86.0" x2="244.0" y2="86.0"/><line x1="96.0" y1="102.0" x2="244.0" y2="102.0"/><circle cx="96.0" cy="94.0" r="8.0"/><circle cx="244.0" cy="94.0" r="8.0"/><line x1="84.0" y1="94.0" x2="256.0" y2="94.0"/><line x1="84.0" y1="120.0" x2="84.0" y2="94.0"/><line x1="256.0" y1="120.0" x2="256.0" y2="94.0"/><circle class="dot" cx="84.0" cy="120.0" r="3.0"/><circle class="dot" cx="256.0" cy="120.0" r="3.0"/><line x1="96.0" y1="102.0" x2="96.0" y2="112.0"/><line x1="244.0" y1="102.0" x2="244.0" y2="112.0"/><line x1="96.0" y1="128.0" x2="96.0" y2="160.0"/><line x1="244.0" y1="128.0" x2="244.0" y2="160.0"/><text x="170" y="61" text-anchor="middle">TL1  2x RG-59 (parallel) (37.5 &#8486;)</text><text x="170" y="74" text-anchor="middle">1/4 wave  339 mm</text><line x1="404.0" y1="112.0" x2="524.0" y2="112.0"/><line x1="404.0" y1="128.0" x2="524.0" y2="128.0"/><circle cx="404.0" cy="120.0" r="8.0"/><circle cx="524.0" cy="120.0" r="8.0"/><line x1="404.0" y1="128.0" x2="404.0" y2="160.0"/><line x1="524.0" y1="128.0" x2="524.0" y2="160.0"/><text x="464" y="87" text-anchor="middle">Q1  RG-59 (75 &#8486;)</text><text x="464" y="100" text-anchor="middle">1/4 wave  339 mm</text><circle class="dot" cx="348.0" cy="120.0" r="3.0"/><circle class="dot" cx="364.0" cy="160.0" r="3.0"/><path d="M348.0,120.0 V153.0 A7.0,7.0 0 0 1 348.0,167.0 V230.0"/><line x1="364.0" y1="160.0" x2="364.0" y2="270.0"/><line x1="560.0" y1="120.0" x2="581.9" y2="122.3"/><line x1="560.0" y1="160.0" x2="581.9" y2="157.7"/><path d="M581.9,122.3 A42.0,42.0 0 1 1 581.9,157.7"/><text x="620" y="144" text-anchor="middle">LOOP A</text><line x1="348.0" y1="230.0" x2="634.0" y2="230.0"/><line x1="364.0" y1="270.0" x2="404.0" y2="270.0"/><line x1="500.0" y1="270.0" x2="528.0" y2="270.0"/><line x1="624.0" y1="270.0" x2="634.0" y2="270.0"/><line x1="404.0" y1="222.0" x2="500.0" y2="222.0"/><line x1="404.0" y1="238.0" x2="500.0" y2="238.0"/><circle cx="404.0" cy="230.0" r="8.0"/><circle cx="500.0" cy="230.0" r="8.0"/><line x1="404.0" y1="238.0" x2="404.0" y2="270.0"/><line x1="500.0" y1="238.0" x2="500.0" y2="270.0"/><text x="452" y="197" text-anchor="middle">DL1  RG-58 (50 &#8486;)</text><text x="452" y="210" text-anchor="middle">1/4 wave  339 mm</text><line x1="528.0" y1="222.0" x2="624.0" y2="222.0"/><line x1="528.0" y1="238.0" x2="624.0" y2="238.0"/><circle cx="528.0" cy="230.0" r="8.0"/><circle cx="624.0" cy="230.0" r="8.0"/><line x1="528.0" y1="238.0" x2="528.0" y2="270.0"/><line x1="624.0" y1="238.0" x2="624.0" y2="270.0"/><text x="576" y="197" text-anchor="middle">Q2  RG-59 (75 &#8486;)</text><text x="576" y="210" text-anchor="middle">1/4 wave  339 mm</text><line x1="634.0" y1="230.0" x2="658.0" y2="230.0"/><line x1="634.0" y1="270.0" x2="658.0" y2="270.0"/><line x1="658.0" y1="230.0" x2="681.9" y2="232.3"/><line x1="658.0" y1="270.0" x2="681.9" y2="267.7"/><path d="M681.9,232.3 A42.0,42.0 0 1 1 681.9,267.7"/><text x="720" y="254" text-anchor="middle">LOOP B</text></svg>